<svg width="62" height="26" viewBox="0 0 62 26" fill="none" xmlns="http://www.w3.org/2000/svg">
<path d="M3.42616 7.624C3.85816 7.016 4.45016 6.512 5.20216 6.112C5.97016 5.696 6.84216 5.488 7.81816 5.488C8.95416 5.488 9.97816 5.768 10.8902 6.328C11.8182 6.888 12.5462 7.688 13.0742 8.728C13.6182 9.752 13.8902 10.944 13.8902 12.304C13.8902 13.664 13.6182 14.872 13.0742 15.928C12.5462 16.968 11.8182 17.776 10.8902 18.352C9.97816 18.928 8.95416 19.216 7.81816 19.216C6.84216 19.216 5.97816 19.016 5.22616 18.616C4.49016 18.216 3.89016 17.712 3.42616 17.104V25.336H0.0661564V5.704H3.42616V7.624ZM10.4582 12.304C10.4582 11.504 10.2902 10.816 9.95416 10.24C9.63416 9.648 9.20216 9.2 8.65816 8.896C8.13016 8.592 7.55416 8.44 6.93016 8.44C6.32216 8.44 5.74616 8.6 5.20216 8.92C4.67416 9.224 4.24216 9.672 3.90616 10.264C3.58616 10.856 3.42616 11.552 3.42616 12.352C3.42616 13.152 3.58616 13.848 3.90616 14.44C4.24216 15.032 4.67416 15.488 5.20216 15.808C5.74616 16.112 6.32216 16.264 6.93016 16.264C7.55416 16.264 8.13016 16.104 8.65816 15.784C9.20216 15.464 9.63416 15.008 9.95416 14.416C10.2902 13.824 10.4582 13.12 10.4582 12.304ZM19.6918 7.768C20.1238 7.064 20.6838 6.512 21.3718 6.112C22.0758 5.712 22.8758 5.512 23.7718 5.512V9.04H22.8838C21.8278 9.04 21.0278 9.288 20.4838 9.784C19.9558 10.28 19.6918 11.144 19.6918 12.376V19H16.3318V5.704H19.6918V7.768ZM25.1709 12.304C25.1709 10.96 25.4349 9.768 25.9629 8.728C26.5069 7.688 27.2349 6.888 28.1469 6.328C29.0749 5.768 30.1069 5.488 31.2429 5.488C32.2349 5.488 33.0989 5.688 33.8349 6.088C34.5869 6.488 35.1869 6.992 35.6349 7.6V5.704H39.0189V19H35.6349V17.056C35.2029 17.68 34.6029 18.2 33.8349 18.616C33.0829 19.016 32.2109 19.216 31.2189 19.216C30.0989 19.216 29.0749 18.928 28.1469 18.352C27.2349 17.776 26.5069 16.968 25.9629 15.928C25.4349 14.872 25.1709 13.664 25.1709 12.304ZM35.6349 12.352C35.6349 11.536 35.4749 10.84 35.1549 10.264C34.8349 9.672 34.4029 9.224 33.8589 8.92C33.3149 8.6 32.7309 8.44 32.1069 8.44C31.4829 8.44 30.9069 8.592 30.3789 8.896C29.8509 9.2 29.4189 9.648 29.0829 10.24C28.7629 10.816 28.6029 11.504 28.6029 12.304C28.6029 13.104 28.7629 13.808 29.0829 14.416C29.4189 15.008 29.8509 15.464 30.3789 15.784C30.9229 16.104 31.4989 16.264 32.1069 16.264C32.7309 16.264 33.3149 16.112 33.8589 15.808C34.4029 15.488 34.8349 15.04 35.1549 14.464C35.4749 13.872 35.6349 13.168 35.6349 12.352ZM44.0045 4.12C43.4125 4.12 42.9165 3.936 42.5165 3.568C42.1325 3.184 41.9405 2.712 41.9405 2.152C41.9405 1.592 42.1325 1.128 42.5165 0.759999C42.9165 0.375999 43.4125 0.183999 44.0045 0.183999C44.5965 0.183999 45.0845 0.375999 45.4685 0.759999C45.8685 1.128 46.0685 1.592 46.0685 2.152C46.0685 2.712 45.8685 3.184 45.4685 3.568C45.0845 3.936 44.5965 4.12 44.0045 4.12ZM45.6605 5.704V19H42.3005V5.704H45.6605ZM48.1162 12.304C48.1162 10.96 48.3802 9.768 48.9082 8.728C49.4522 7.688 50.1802 6.888 51.0922 6.328C52.0202 5.768 53.0522 5.488 54.1882 5.488C55.1802 5.488 56.0442 5.688 56.7802 6.088C57.5322 6.488 58.1322 6.992 58.5802 7.6V5.704H61.9642V19H58.5802V17.056C58.1482 17.68 57.5482 18.2 56.7802 18.616C56.0282 19.016 55.1562 19.216 54.1642 19.216C53.0442 19.216 52.0202 18.928 51.0922 18.352C50.1802 17.776 49.4522 16.968 48.9082 15.928C48.3802 14.872 48.1162 13.664 48.1162 12.304ZM58.5802 12.352C58.5802 11.536 58.4202 10.84 58.1002 10.264C57.7802 9.672 57.3482 9.224 56.8042 8.92C56.2602 8.6 55.6762 8.44 55.0522 8.44C54.4282 8.44 53.8522 8.592 53.3242 8.896C52.7962 9.2 52.3642 9.648 52.0282 10.24C51.7082 10.816 51.5482 11.504 51.5482 12.304C51.5482 13.104 51.7082 13.808 52.0282 14.416C52.3642 15.008 52.7962 15.464 53.3242 15.784C53.8682 16.104 54.4442 16.264 55.0522 16.264C55.6762 16.264 56.2602 16.112 56.8042 15.808C57.3482 15.488 57.7802 15.04 58.1002 14.464C58.4202 13.872 58.5802 13.168 58.5802 12.352Z" fill="#47585B"/>
</svg>
